<svg width="358" height="349" viewBox="0 0 358 349" fill="none" xmlns="http://www.w3.org/2000/svg">
<g clip-path="url(#clip0_1_3)" filter="url(#filter0_d_1_3)">
<path d="M209.257 100.39C210.852 100.983 212.643 100.351 213.51 98.8907C214.376 97.4304 214.069 95.56 212.78 94.4516L203.162 92.8077M209.257 100.39L210.462 97.1475L210.463 97.147L210.482 97.0946L210.499 97.1046L210.499 97.1048L213.505 98.888L210.5 97.1038L210.5 97.1037L210.483 97.0934L210.999 95.7035C208.356 94.7208 205.744 93.7557 203.162 92.8077M209.257 100.39L210.462 97.1477L210.462 97.1471L210.482 97.0946M209.257 100.39L210.482 97.0946M203.162 92.8077C141.481 40.3998 109.168 22.3696 96.5932 16.6023C97.0093 30.4681 99.4433 45.0638 103.116 59.7231C129.76 67.3185 162.704 77.9516 203.162 92.8077ZM210.482 97.0946L209.21 96.3397C208.837 96.9669 208.971 97.7701 209.52 98.2427C209.52 98.2428 209.521 98.2428 209.521 98.2429L210.482 97.0946ZM95.4532 16.0886C95.4511 16.0878 95.4491 16.0868 95.447 16.0859L95.4532 16.0886Z" stroke="black" stroke-width="10"/>
<mask id="path-2-inside-1_1_3" fill="white">
<path d="M352.255 105.8L325.035 95.968C320.916 80.1205 308.689 64.6136 275.884 64.6136C259.867 64.6136 247.745 75.7632 240.957 88.8139L240.944 88.8096C240.944 88.8096 232.488 105.792 219.288 116.564C83.0026 64.8076 25.7343 58.1277 8.33203 57.5845C8.28854 57.5845 8.24362 57.5845 8.19728 57.5845C6.83336 57.5845 5.54002 58.2521 4.74577 59.3853C3.94011 60.5534 3.77113 62.052 4.31584 63.3637C25.8263 115.781 76.6806 166.525 112.63 197.839C68.7908 237.189 37.7907 284.956 21.388 313.811C18.4577 318.962 18.6181 325.294 21.7745 330.305C24.9294 335.312 30.5825 338.194 36.5059 337.808L153.313 330.145C154.741 330.055 156.059 329.364 156.945 328.261C157.854 327.151 158.239 325.722 158.025 324.316C148.943 263.512 181.863 240.903 182.577 240.414C192.272 244.953 218.331 248.407 234.611 246.692C262.705 243.731 312.754 228.842 307.226 174.804C304.761 154.55 310.711 134.233 323.559 118.432L350.998 111.096C352.483 110.695 353.641 109.671 353.935 108.498C354.219 107.337 353.551 106.264 352.255 105.8Z"/>
</mask>
<path d="M352.255 105.8L348.857 115.205L348.871 115.21L348.884 115.215L352.255 105.8ZM325.035 95.968L315.356 98.4831L316.681 103.583L321.638 105.373L325.035 95.968ZM240.957 88.8139L237.804 98.3038L245.895 100.992L249.829 93.4284L240.957 88.8139ZM240.944 88.8096L244.097 79.3197L235.861 76.5832L231.993 84.3525L240.944 88.8096ZM219.288 116.564L215.737 125.912L221.136 127.963L225.61 124.312L219.288 116.564ZM8.33203 57.5845L8.644 47.5894L8.48805 47.5845H8.33203V57.5845ZM4.74577 59.3853L-3.44319 53.6459L-3.46473 53.6766L-3.48605 53.7075L4.74577 59.3853ZM4.31584 63.3637L13.5672 59.5673L13.5592 59.5479L13.5512 59.5285L4.31584 63.3637ZM112.63 197.839L119.309 205.281L127.725 197.727L119.198 190.299L112.63 197.839ZM21.388 313.811L30.0799 318.756L30.0816 318.753L21.388 313.811ZM21.7745 330.305L13.3132 335.635L13.3139 335.636L21.7745 330.305ZM36.5059 337.808L37.1551 347.787L37.1606 347.787L36.5059 337.808ZM153.313 330.145L152.682 320.165L152.67 320.166L152.658 320.167L153.313 330.145ZM156.945 328.261L149.207 321.927L149.179 321.962L149.151 321.997L156.945 328.261ZM158.025 324.316L148.135 325.794L148.137 325.805L148.138 325.816L158.025 324.316ZM182.577 240.414L186.816 231.357L181.643 228.936L176.929 232.162L182.577 240.414ZM234.611 246.692L233.563 236.747L233.563 236.747L234.611 246.692ZM307.226 174.804L317.174 173.786L317.164 173.691L317.153 173.596L307.226 174.804ZM323.559 118.432L320.976 108.771L317.845 109.608L315.8 112.123L323.559 118.432ZM350.998 111.096L353.58 120.757L353.592 120.754L353.603 120.751L350.998 111.096ZM353.935 108.498L363.636 110.927L363.642 110.9L363.649 110.873L353.935 108.498ZM355.652 96.3943L328.432 86.5627L321.638 105.373L348.857 115.205L355.652 96.3943ZM334.713 93.453C332.243 83.9486 327.16 73.9392 317.285 66.3997C307.431 58.8763 293.855 54.6136 275.884 54.6136V74.6136C290.718 74.6136 299.658 78.1043 305.148 82.2963C310.618 86.4721 313.708 92.14 315.356 98.4831L334.713 93.453ZM275.884 54.6136C254.723 54.6136 239.827 69.3153 232.085 84.1993L249.829 93.4284C255.663 82.2111 265.01 74.6136 275.884 74.6136V54.6136ZM244.11 79.3239L244.097 79.3197L237.791 98.2995L237.804 98.3038L244.11 79.3239ZM240.944 88.8096C231.993 84.3525 231.993 84.3509 231.994 84.3494C231.994 84.349 231.995 84.3476 231.995 84.3468C231.996 84.3451 231.997 84.3437 231.997 84.3426C231.999 84.3403 231.999 84.339 231.999 84.3387C232 84.3382 231.998 84.3416 231.994 84.3489C231.987 84.3635 231.972 84.3937 231.948 84.4387C231.902 84.5288 231.825 84.6782 231.717 84.8813C231.502 85.2878 231.167 85.9074 230.72 86.6961C229.822 88.2776 228.486 90.5153 226.77 93.0636C223.275 98.2567 218.496 104.303 212.966 108.816L225.61 124.312C233.28 118.053 239.329 110.223 243.362 104.231C245.411 101.187 247.013 98.5062 248.114 96.5669C248.665 95.5951 249.094 94.8038 249.393 94.2395C249.542 93.9571 249.66 93.7311 249.744 93.5672C249.786 93.4852 249.82 93.4187 249.845 93.3684C249.858 93.3433 249.868 93.3221 249.877 93.3052C249.881 93.2967 249.885 93.2892 249.888 93.2828C249.89 93.2796 249.891 93.2767 249.892 93.274C249.893 93.2727 249.894 93.2708 249.894 93.2702C249.895 93.2684 249.896 93.2667 240.944 88.8096ZM222.838 107.215C86.1297 55.2984 27.6603 48.1829 8.644 47.5894L8.02006 67.5797C23.8083 68.0724 79.8754 74.3169 215.737 125.912L222.838 107.215ZM8.33203 47.5845C8.33195 47.5845 8.33186 47.5845 8.33178 47.5845C8.33169 47.5845 8.33161 47.5845 8.33152 47.5845C8.33144 47.5845 8.33135 47.5845 8.33127 47.5845C8.33118 47.5845 8.3311 47.5845 8.33101 47.5845C8.33093 47.5845 8.33084 47.5845 8.33076 47.5845C8.33067 47.5845 8.33059 47.5845 8.3305 47.5845C8.33042 47.5845 8.33033 47.5845 8.33025 47.5845C8.33016 47.5845 8.33008 47.5845 8.32999 47.5845C8.32991 47.5845 8.32982 47.5845 8.32974 47.5845C8.32965 47.5845 8.32957 47.5845 8.32948 47.5845C8.3294 47.5845 8.32931 47.5845 8.32923 47.5845C8.32914 47.5845 8.32906 47.5845 8.32897 47.5845C8.32888 47.5845 8.3288 47.5845 8.32871 47.5845C8.32863 47.5845 8.32854 47.5845 8.32846 47.5845C8.32837 47.5845 8.32829 47.5845 8.3282 47.5845C8.32812 47.5845 8.32803 47.5845 8.32795 47.5845C8.32786 47.5845 8.32778 47.5845 8.32769 47.5845C8.32761 47.5845 8.32752 47.5845 8.32744 47.5845C8.32735 47.5845 8.32727 47.5845 8.32718 47.5845C8.3271 47.5845 8.32701 47.5845 8.32693 47.5845C8.32684 47.5845 8.32676 47.5845 8.32667 47.5845C8.32659 47.5845 8.3265 47.5845 8.32642 47.5845C8.32633 47.5845 8.32625 47.5845 8.32616 47.5845C8.32608 47.5845 8.32599 47.5845 8.3259 47.5845C8.32582 47.5845 8.32573 47.5845 8.32565 47.5845C8.32556 47.5845 8.32548 47.5845 8.32539 47.5845C8.32531 47.5845 8.32522 47.5845 8.32514 47.5845C8.32505 47.5845 8.32497 47.5845 8.32488 47.5845C8.3248 47.5845 8.32471 47.5845 8.32463 47.5845C8.32454 47.5845 8.32446 47.5845 8.32437 47.5845C8.32429 47.5845 8.3242 47.5845 8.32411 47.5845C8.32403 47.5845 8.32394 47.5845 8.32386 47.5845C8.32377 47.5845 8.32369 47.5845 8.3236 47.5845C8.32352 47.5845 8.32343 47.5845 8.32335 47.5845C8.32326 47.5845 8.32318 47.5845 8.32309 47.5845C8.32301 47.5845 8.32292 47.5845 8.32284 47.5845C8.32275 47.5845 8.32266 47.5845 8.32258 47.5845C8.32249 47.5845 8.32241 47.5845 8.32232 47.5845C8.32224 47.5845 8.32215 47.5845 8.32207 47.5845C8.32198 47.5845 8.3219 47.5845 8.32181 47.5845C8.32173 47.5845 8.32164 47.5845 8.32155 47.5845C8.32147 47.5845 8.32138 47.5845 8.3213 47.5845C8.32121 47.5845 8.32113 47.5845 8.32104 47.5845C8.32096 47.5845 8.32087 47.5845 8.32079 47.5845C8.3207 47.5845 8.32062 47.5845 8.32053 47.5845C8.32044 47.5845 8.32036 47.5845 8.32027 47.5845C8.32019 47.5845 8.3201 47.5845 8.32002 47.5845C8.31993 47.5845 8.31985 47.5845 8.31976 47.5845C8.31968 47.5845 8.31959 47.5845 8.3195 47.5845C8.31942 47.5845 8.31933 47.5845 8.31925 47.5845C8.31916 47.5845 8.31908 47.5845 8.31899 47.5845C8.31891 47.5845 8.31882 47.5845 8.31873 47.5845C8.31865 47.5845 8.31856 47.5845 8.31848 47.5845C8.31839 47.5845 8.31831 47.5845 8.31822 47.5845C8.31814 47.5845 8.31805 47.5845 8.31797 47.5845C8.31788 47.5845 8.31779 47.5845 8.31771 47.5845C8.31762 47.5845 8.31754 47.5845 8.31745 47.5845C8.31737 47.5845 8.31728 47.5845 8.3172 47.5845C8.31711 47.5845 8.31702 47.5845 8.31694 47.5845C8.31685 47.5845 8.31677 47.5845 8.31668 47.5845C8.3166 47.5845 8.31651 47.5845 8.31642 47.5845C8.31634 47.5845 8.31625 47.5845 8.31617 47.5845C8.31608 47.5845 8.316 47.5845 8.31591 47.5845C8.31583 47.5845 8.31574 47.5845 8.31565 47.5845C8.31557 47.5845 8.31548 47.5845 8.3154 47.5845C8.31531 47.5845 8.31523 47.5845 8.31514 47.5845C8.31505 47.5845 8.31497 47.5845 8.31488 47.5845C8.3148 47.5845 8.31471 47.5845 8.31463 47.5845C8.31454 47.5845 8.31445 47.5845 8.31437 47.5845C8.31428 47.5845 8.3142 47.5845 8.31411 47.5845C8.31403 47.5845 8.31394 47.5845 8.31385 47.5845C8.31377 47.5845 8.31368 47.5845 8.3136 47.5845C8.31351 47.5845 8.31343 47.5845 8.31334 47.5845C8.31325 47.5845 8.31317 47.5845 8.31308 47.5845C8.313 47.5845 8.31291 47.5845 8.31283 47.5845C8.31274 47.5845 8.31265 47.5845 8.31257 47.5845C8.31248 47.5845 8.3124 47.5845 8.31231 47.5845C8.31223 47.5845 8.31214 47.5845 8.31205 47.5845C8.31197 47.5845 8.31188 47.5845 8.3118 47.5845C8.31171 47.5845 8.31163 47.5845 8.31154 47.5845C8.31145 47.5845 8.31137 47.5845 8.31128 47.5845C8.3112 47.5845 8.31111 47.5845 8.31102 47.5845C8.31094 47.5845 8.31085 47.5845 8.31077 47.5845C8.31068 47.5845 8.3106 47.5845 8.31051 47.5845C8.31042 47.5845 8.31034 47.5845 8.31025 47.5845C8.31017 47.5845 8.31008 47.5845 8.30999 47.5845C8.30991 47.5845 8.30982 47.5845 8.30974 47.5845C8.30965 47.5845 8.30956 47.5845 8.30948 47.5845C8.30939 47.5845 8.30931 47.5845 8.30922 47.5845C8.30914 47.5845 8.30905 47.5845 8.30896 47.5845C8.30888 47.5845 8.30879 47.5845 8.30871 47.5845C8.30862 47.5845 8.30853 47.5845 8.30845 47.5845C8.30836 47.5845 8.30828 47.5845 8.30819 47.5845C8.3081 47.5845 8.30802 47.5845 8.30793 47.5845C8.30785 47.5845 8.30776 47.5845 8.30767 47.5845C8.30759 47.5845 8.3075 47.5845 8.30742 47.5845C8.30733 47.5845 8.30724 47.5845 8.30716 47.5845C8.30707 47.5845 8.30699 47.5845 8.3069 47.5845C8.30681 47.5845 8.30673 47.5845 8.30664 47.5845C8.30656 47.5845 8.30647 47.5845 8.30638 47.5845C8.3063 47.5845 8.30621 47.5845 8.30613 47.5845C8.30604 47.5845 8.30595 47.5845 8.30587 47.5845C8.30578 47.5845 8.3057 47.5845 8.30561 47.5845C8.30552 47.5845 8.30544 47.5845 8.30535 47.5845C8.30527 47.5845 8.30518 47.5845 8.30509 47.5845C8.30501 47.5845 8.30492 47.5845 8.30483 47.5845C8.30475 47.5845 8.30466 47.5845 8.30458 47.5845C8.30449 47.5845 8.3044 47.5845 8.30432 47.5845C8.30423 47.5845 8.30415 47.5845 8.30406 47.5845C8.30397 47.5845 8.30389 47.5845 8.3038 47.5845C8.30372 47.5845 8.30363 47.5845 8.30354 47.5845C8.30346 47.5845 8.30337 47.5845 8.30328 47.5845C8.3032 47.5845 8.30311 47.5845 8.30303 47.5845C8.30294 47.5845 8.30285 47.5845 8.30277 47.5845C8.30268 47.5845 8.30259 47.5845 8.30251 47.5845C8.30242 47.5845 8.30234 47.5845 8.30225 47.5845C8.30216 47.5845 8.30208 47.5845 8.30199 47.5845C8.30191 47.5845 8.30182 47.5845 8.30173 47.5845C8.30165 47.5845 8.30156 47.5845 8.30147 47.5845C8.30139 47.5845 8.3013 47.5845 8.30122 47.5845C8.30113 47.5845 8.30104 47.5845 8.30096 47.5845C8.30087 47.5845 8.30078 47.5845 8.3007 47.5845C8.30061 47.5845 8.30053 47.5845 8.30044 47.5845C8.30035 47.5845 8.30027 47.5845 8.30018 47.5845C8.30009 47.5845 8.30001 47.5845 8.29992 47.5845C8.29983 47.5845 8.29975 47.5845 8.29966 47.5845C8.29958 47.5845 8.29949 47.5845 8.2994 47.5845C8.29932 47.5845 8.29923 47.5845 8.29914 47.5845C8.29906 47.5845 8.29897 47.5845 8.29889 47.5845C8.2988 47.5845 8.29871 47.5845 8.29863 47.5845C8.29854 47.5845 8.29845 47.5845 8.29837 47.5845C8.29828 47.5845 8.29819 47.5845 8.29811 47.5845C8.29802 47.5845 8.29794 47.5845 8.29785 47.5845C8.29776 47.5845 8.29768 47.5845 8.29759 47.5845C8.2975 47.5845 8.29742 47.5845 8.29733 47.5845C8.29724 47.5845 8.29716 47.5845 8.29707 47.5845C8.29698 47.5845 8.2969 47.5845 8.29681 47.5845C8.29673 47.5845 8.29664 47.5845 8.29655 47.5845C8.29647 47.5845 8.29638 47.5845 8.29629 47.5845C8.29621 47.5845 8.29612 47.5845 8.29603 47.5845C8.29595 47.5845 8.29586 47.5845 8.29577 47.5845C8.29569 47.5845 8.2956 47.5845 8.29551 47.5845C8.29543 47.5845 8.29534 47.5845 8.29526 47.5845C8.29517 47.5845 8.29508 47.5845 8.295 47.5845C8.29491 47.5845 8.29482 47.5845 8.29474 47.5845C8.29465 47.5845 8.29456 47.5845 8.29448 47.5845C8.29439 47.5845 8.2943 47.5845 8.29422 47.5845C8.29413 47.5845 8.29404 47.5845 8.29396 47.5845C8.29387 47.5845 8.29378 47.5845 8.2937 47.5845C8.29361 47.5845 8.29352 47.5845 8.29344 47.5845C8.29335 47.5845 8.29327 47.5845 8.29318 47.5845C8.29309 47.5845 8.29301 47.5845 8.29292 47.5845C8.29283 47.5845 8.29275 47.5845 8.29266 47.5845C8.29257 47.5845 8.29249 47.5845 8.2924 47.5845C8.29231 47.5845 8.29223 47.5845 8.29214 47.5845C8.29205 47.5845 8.29197 47.5845 8.29188 47.5845C8.29179 47.5845 8.29171 47.5845 8.29162 47.5845C8.29153 47.5845 8.29145 47.5845 8.29136 47.5845C8.29127 47.5845 8.29119 47.5845 8.2911 47.5845C8.29101 47.5845 8.29093 47.5845 8.29084 47.5845C8.29075 47.5845 8.29067 47.5845 8.29058 47.5845C8.29049 47.5845 8.29041 47.5845 8.29032 47.5845C8.29023 47.5845 8.29015 47.5845 8.29006 47.5845C8.28997 47.5845 8.28989 47.5845 8.2898 47.5845C8.28971 47.5845 8.28963 47.5845 8.28954 47.5845C8.28945 47.5845 8.28937 47.5845 8.28928 47.5845C8.28919 47.5845 8.2891 47.5845 8.28902 47.5845C8.28893 47.5845 8.28884 47.5845 8.28876 47.5845C8.28867 47.5845 8.28858 47.5845 8.2885 47.5845C8.28841 47.5845 8.28832 47.5845 8.28824 47.5845C8.28815 47.5845 8.28806 47.5845 8.28798 47.5845C8.28789 47.5845 8.2878 47.5845 8.28772 47.5845C8.28763 47.5845 8.28754 47.5845 8.28746 47.5845C8.28737 47.5845 8.28728 47.5845 8.2872 47.5845C8.28711 47.5845 8.28702 47.5845 8.28693 47.5845C8.28685 47.5845 8.28676 47.5845 8.28667 47.5845C8.28659 47.5845 8.2865 47.5845 8.28641 47.5845C8.28633 47.5845 8.28624 47.5845 8.28615 47.5845C8.28607 47.5845 8.28598 47.5845 8.28589 47.5845C8.28581 47.5845 8.28572 47.5845 8.28563 47.5845C8.28554 47.5845 8.28546 47.5845 8.28537 47.5845C8.28528 47.5845 8.2852 47.5845 8.28511 47.5845C8.28502 47.5845 8.28494 47.5845 8.28485 47.5845C8.28476 47.5845 8.28468 47.5845 8.28459 47.5845C8.2845 47.5845 8.28441 47.5845 8.28433 47.5845C8.28424 47.5845 8.28415 47.5845 8.28407 47.5845C8.28398 47.5845 8.28389 47.5845 8.28381 47.5845C8.28372 47.5845 8.28363 47.5845 8.28354 47.5845C8.28346 47.5845 8.28337 47.5845 8.28328 47.5845C8.2832 47.5845 8.28311 47.5845 8.28302 47.5845C8.28294 47.5845 8.28285 47.5845 8.28276 47.5845C8.28267 47.5845 8.28259 47.5845 8.2825 47.5845C8.28241 47.5845 8.28233 47.5845 8.28224 47.5845C8.28215 47.5845 8.28207 47.5845 8.28198 47.5845C8.28189 47.5845 8.2818 47.5845 8.28172 47.5845C8.28163 47.5845 8.28154 47.5845 8.28146 47.5845C8.28137 47.5845 8.28128 47.5845 8.28119 47.5845C8.28111 47.5845 8.28102 47.5845 8.28093 47.5845C8.28085 47.5845 8.28076 47.5845 8.28067 47.5845C8.28059 47.5845 8.2805 47.5845 8.28041 47.5845C8.28032 47.5845 8.28024 47.5845 8.28015 47.5845C8.28006 47.5845 8.27998 47.5845 8.27989 47.5845C8.2798 47.5845 8.27971 47.5845 8.27963 47.5845C8.27954 47.5845 8.27945 47.5845 8.27937 47.5845C8.27928 47.5845 8.27919 47.5845 8.2791 47.5845C8.27902 47.5845 8.27893 47.5845 8.27884 47.5845C8.27876 47.5845 8.27867 47.5845 8.27858 47.5845C8.27849 47.5845 8.27841 47.5845 8.27832 47.5845C8.27823 47.5845 8.27814 47.5845 8.27806 47.5845C8.27797 47.5845 8.27788 47.5845 8.2778 47.5845C8.27771 47.5845 8.27762 47.5845 8.27753 47.5845C8.27745 47.5845 8.27736 47.5845 8.27727 47.5845C8.27719 47.5845 8.2771 47.5845 8.27701 47.5845C8.27692 47.5845 8.27684 47.5845 8.27675 47.5845C8.27666 47.5845 8.27657 47.5845 8.27649 47.5845C8.2764 47.5845 8.27631 47.5845 8.27623 47.5845C8.27614 47.5845 8.27605 47.5845 8.27596 47.5845C8.27588 47.5845 8.27579 47.5845 8.2757 47.5845C8.27561 47.5845 8.27553 47.5845 8.27544 47.5845C8.27535 47.5845 8.27526 47.5845 8.27518 47.5845C8.27509 47.5845 8.275 47.5845 8.27492 47.5845C8.27483 47.5845 8.27474 47.5845 8.27465 47.5845C8.27457 47.5845 8.27448 47.5845 8.27439 47.5845C8.2743 47.5845 8.27422 47.5845 8.27413 47.5845C8.27404 47.5845 8.27395 47.5845 8.27387 47.5845C8.27378 47.5845 8.27369 47.5845 8.2736 47.5845C8.27352 47.5845 8.27343 47.5845 8.27334 47.5845C8.27325 47.5845 8.27317 47.5845 8.27308 47.5845C8.27299 47.5845 8.27291 47.5845 8.27282 47.5845C8.27273 47.5845 8.27264 47.5845 8.27256 47.5845C8.27247 47.5845 8.27238 47.5845 8.27229 47.5845C8.27221 47.5845 8.27212 47.5845 8.27203 47.5845C8.27194 47.5845 8.27186 47.5845 8.27177 47.5845C8.27168 47.5845 8.27159 47.5845 8.27151 47.5845C8.27142 47.5845 8.27133 47.5845 8.27124 47.5845C8.27116 47.5845 8.27107 47.5845 8.27098 47.5845C8.27089 47.5845 8.27081 47.5845 8.27072 47.5845C8.27063 47.5845 8.27054 47.5845 8.27046 47.5845C8.27037 47.5845 8.27028 47.5845 8.27019 47.5845C8.27011 47.5845 8.27002 47.5845 8.26993 47.5845C8.26984 47.5845 8.26976 47.5845 8.26967 47.5845C8.26958 47.5845 8.26949 47.5845 8.26941 47.5845C8.26932 47.5845 8.26923 47.5845 8.26914 47.5845C8.26905 47.5845 8.26897 47.5845 8.26888 47.5845C8.26879 47.5845 8.2687 47.5845 8.26862 47.5845C8.26853 47.5845 8.26844 47.5845 8.26835 47.5845C8.26827 47.5845 8.26818 47.5845 8.26809 47.5845C8.268 47.5845 8.26792 47.5845 8.26783 47.5845C8.26774 47.5845 8.26765 47.5845 8.26757 47.5845C8.26748 47.5845 8.26739 47.5845 8.2673 47.5845C8.26721 47.5845 8.26713 47.5845 8.26704 47.5845C8.26695 47.5845 8.26686 47.5845 8.26678 47.5845C8.26669 47.5845 8.2666 47.5845 8.26651 47.5845C8.26643 47.5845 8.26634 47.5845 8.26625 47.5845C8.26616 47.5845 8.26607 47.5845 8.26599 47.5845C8.2659 47.5845 8.26581 47.5845 8.26572 47.5845C8.26564 47.5845 8.26555 47.5845 8.26546 47.5845C8.26537 47.5845 8.26528 47.5845 8.2652 47.5845C8.26511 47.5845 8.26502 47.5845 8.26493 47.5845C8.26485 47.5845 8.26476 47.5845 8.26467 47.5845C8.26458 47.5845 8.2645 47.5845 8.26441 47.5845C8.26432 47.5845 8.26423 47.5845 8.26414 47.5845C8.26406 47.5845 8.26397 47.5845 8.26388 47.5845C8.26379 47.5845 8.2637 47.5845 8.26362 47.5845C8.26353 47.5845 8.26344 47.5845 8.26335 47.5845C8.26327 47.5845 8.26318 47.5845 8.26309 47.5845C8.263 47.5845 8.26291 47.5845 8.26283 47.5845C8.26274 47.5845 8.26265 47.5845 8.26256 47.5845C8.26248 47.5845 8.26239 47.5845 8.2623 47.5845C8.26221 47.5845 8.26212 47.5845 8.26204 47.5845C8.26195 47.5845 8.26186 47.5845 8.26177 47.5845C8.26168 47.5845 8.2616 47.5845 8.26151 47.5845C8.26142 47.5845 8.26133 47.5845 8.26124 47.5845C8.26116 47.5845 8.26107 47.5845 8.26098 47.5845C8.26089 47.5845 8.26081 47.5845 8.26072 47.5845C8.26063 47.5845 8.26054 47.5845 8.26045 47.5845C8.26037 47.5845 8.26028 47.5845 8.26019 47.5845C8.2601 47.5845 8.26001 47.5845 8.25993 47.5845C8.25984 47.5845 8.25975 47.5845 8.25966 47.5845C8.25957 47.5845 8.25949 47.5845 8.2594 47.5845C8.25931 47.5845 8.25922 47.5845 8.25913 47.5845C8.25905 47.5845 8.25896 47.5845 8.25887 47.5845C8.25878 47.5845 8.25869 47.5845 8.25861 47.5845C8.25852 47.5845 8.25843 47.5845 8.25834 47.5845C8.25825 47.5845 8.25817 47.5845 8.25808 47.5845C8.25799 47.5845 8.2579 47.5845 8.25781 47.5845C8.25773 47.5845 8.25764 47.5845 8.25755 47.5845C8.25746 47.5845 8.25737 47.5845 8.25728 47.5845C8.2572 47.5845 8.25711 47.5845 8.25702 47.5845C8.25693 47.5845 8.25684 47.5845 8.25676 47.5845C8.25667 47.5845 8.25658 47.5845 8.25649 47.5845C8.2564 47.5845 8.25632 47.5845 8.25623 47.5845C8.25614 47.5845 8.25605 47.5845 8.25596 47.5845C8.25588 47.5845 8.25579 47.5845 8.2557 47.5845C8.25561 47.5845 8.25552 47.5845 8.25543 47.5845C8.25535 47.5845 8.25526 47.5845 8.25517 47.5845C8.25508 47.5845 8.25499 47.5845 8.25491 47.5845C8.25482 47.5845 8.25473 47.5845 8.25464 47.5845C8.25455 47.5845 8.25446 47.5845 8.25438 47.5845C8.25429 47.5845 8.2542 47.5845 8.25411 47.5845C8.25402 47.5845 8.25394 47.5845 8.25385 47.5845C8.25376 47.5845 8.25367 47.5845 8.25358 47.5845C8.25349 47.5845 8.25341 47.5845 8.25332 47.5845C8.25323 47.5845 8.25314 47.5845 8.25305 47.5845C8.25296 47.5845 8.25288 47.5845 8.25279 47.5845C8.2527 47.5845 8.25261 47.5845 8.25252 47.5845C8.25244 47.5845 8.25235 47.5845 8.25226 47.5845C8.25217 47.5845 8.25208 47.5845 8.25199 47.5845C8.25191 47.5845 8.25182 47.5845 8.25173 47.5845C8.25164 47.5845 8.25155 47.5845 8.25146 47.5845C8.25138 47.5845 8.25129 47.5845 8.2512 47.5845C8.25111 47.5845 8.25102 47.5845 8.25093 47.5845C8.25085 47.5845 8.25076 47.5845 8.25067 47.5845C8.25058 47.5845 8.25049 47.5845 8.2504 47.5845C8.25032 47.5845 8.25023 47.5845 8.25014 47.5845C8.25005 47.5845 8.24996 47.5845 8.24987 47.5845C8.24979 47.5845 8.2497 47.5845 8.24961 47.5845C8.24952 47.5845 8.24943 47.5845 8.24934 47.5845C8.24925 47.5845 8.24917 47.5845 8.24908 47.5845C8.24899 47.5845 8.2489 47.5845 8.24881 47.5845C8.24872 47.5845 8.24864 47.5845 8.24855 47.5845C8.24846 47.5845 8.24837 47.5845 8.24828 47.5845C8.24819 47.5845 8.24811 47.5845 8.24802 47.5845C8.24793 47.5845 8.24784 47.5845 8.24775 47.5845C8.24766 47.5845 8.24757 47.5845 8.24749 47.5845C8.2474 47.5845 8.24731 47.5845 8.24722 47.5845C8.24713 47.5845 8.24704 47.5845 8.24696 47.5845C8.24687 47.5845 8.24678 47.5845 8.24669 47.5845C8.2466 47.5845 8.24651 47.5845 8.24642 47.5845C8.24634 47.5845 8.24625 47.5845 8.24616 47.5845C8.24607 47.5845 8.24598 47.5845 8.24589 47.5845C8.2458 47.5845 8.24572 47.5845 8.24563 47.5845C8.24554 47.5845 8.24545 47.5845 8.24536 47.5845C8.24527 47.5845 8.24518 47.5845 8.2451 47.5845C8.24501 47.5845 8.24492 47.5845 8.24483 47.5845C8.24474 47.5845 8.24465 47.5845 8.24456 47.5845C8.24448 47.5845 8.24439 47.5845 8.2443 47.5845C8.24421 47.5845 8.24412 47.5845 8.24403 47.5845C8.24394 47.5845 8.24386 47.5845 8.24377 47.5845C8.24368 47.5845 8.24359 47.5845 8.2435 47.5845C8.24341 47.5845 8.24332 47.5845 8.24323 47.5845C8.24315 47.5845 8.24306 47.5845 8.24297 47.5845C8.24288 47.5845 8.24279 47.5845 8.2427 47.5845C8.24261 47.5845 8.24253 47.5845 8.24244 47.5845C8.24235 47.5845 8.24226 47.5845 8.24217 47.5845C8.24208 47.5845 8.24199 47.5845 8.2419 47.5845C8.24182 47.5845 8.24173 47.5845 8.24164 47.5845C8.24155 47.5845 8.24146 47.5845 8.24137 47.5845C8.24128 47.5845 8.24119 47.5845 8.24111 47.5845C8.24102 47.5845 8.24093 47.5845 8.24084 47.5845C8.24075 47.5845 8.24066 47.5845 8.24057 47.5845C8.24048 47.5845 8.2404 47.5845 8.24031 47.5845C8.24022 47.5845 8.24013 47.5845 8.24004 47.5845C8.23995 47.5845 8.23986 47.5845 8.23977 47.5845C8.23969 47.5845 8.2396 47.5845 8.23951 47.5845C8.23942 47.5845 8.23933 47.5845 8.23924 47.5845C8.23915 47.5845 8.23906 47.5845 8.23898 47.5845C8.23889 47.5845 8.2388 47.5845 8.23871 47.5845C8.23862 47.5845 8.23853 47.5845 8.23844 47.5845C8.23835 47.5845 8.23826 47.5845 8.23818 47.5845C8.23809 47.5845 8.238 47.5845 8.23791 47.5845C8.23782 47.5845 8.23773 47.5845 8.23764 47.5845C8.23755 47.5845 8.23746 47.5845 8.23738 47.5845C8.23729 47.5845 8.2372 47.5845 8.23711 47.5845C8.23702 47.5845 8.23693 47.5845 8.23684 47.5845C8.23675 47.5845 8.23666 47.5845 8.23658 47.5845C8.23649 47.5845 8.2364 47.5845 8.23631 47.5845C8.23622 47.5845 8.23613 47.5845 8.23604 47.5845C8.23595 47.5845 8.23586 47.5845 8.23577 47.5845C8.23569 47.5845 8.2356 47.5845 8.23551 47.5845C8.23542 47.5845 8.23533 47.5845 8.23524 47.5845C8.23515 47.5845 8.23506 47.5845 8.23497 47.5845C8.23489 47.5845 8.2348 47.5845 8.23471 47.5845C8.23462 47.5845 8.23453 47.5845 8.23444 47.5845C8.23435 47.5845 8.23426 47.5845 8.23417 47.5845C8.23408 47.5845 8.234 47.5845 8.23391 47.5845C8.23382 47.5845 8.23373 47.5845 8.23364 47.5845C8.23355 47.5845 8.23346 47.5845 8.23337 47.5845C8.23328 47.5845 8.23319 47.5845 8.2331 47.5845C8.23302 47.5845 8.23293 47.5845 8.23284 47.5845C8.23275 47.5845 8.23266 47.5845 8.23257 47.5845C8.23248 47.5845 8.23239 47.5845 8.2323 47.5845C8.23221 47.5845 8.23212 47.5845 8.23204 47.5845C8.23195 47.5845 8.23186 47.5845 8.23177 47.5845C8.23168 47.5845 8.23159 47.5845 8.2315 47.5845C8.23141 47.5845 8.23132 47.5845 8.23123 47.5845C8.23114 47.5845 8.23106 47.5845 8.23097 47.5845C8.23088 47.5845 8.23079 47.5845 8.2307 47.5845C8.23061 47.5845 8.23052 47.5845 8.23043 47.5845C8.23034 47.5845 8.23025 47.5845 8.23016 47.5845C8.23007 47.5845 8.22999 47.5845 8.2299 47.5845C8.22981 47.5845 8.22972 47.5845 8.22963 47.5845C8.22954 47.5845 8.22945 47.5845 8.22936 47.5845C8.22927 47.5845 8.22918 47.5845 8.22909 47.5845C8.229 47.5845 8.22891 47.5845 8.22883 47.5845C8.22874 47.5845 8.22865 47.5845 8.22856 47.5845C8.22847 47.5845 8.22838 47.5845 8.22829 47.5845C8.2282 47.5845 8.22811 47.5845 8.22802 47.5845C8.22793 47.5845 8.22784 47.5845 8.22775 47.5845C8.22766 47.5845 8.22758 47.5845 8.22749 47.5845C8.2274 47.5845 8.22731 47.5845 8.22722 47.5845C8.22713 47.5845 8.22704 47.5845 8.22695 47.5845C8.22686 47.5845 8.22677 47.5845 8.22668 47.5845C8.22659 47.5845 8.2265 47.5845 8.22641 47.5845C8.22633 47.5845 8.22624 47.5845 8.22615 47.5845C8.22606 47.5845 8.22597 47.5845 8.22588 47.5845C8.22579 47.5845 8.2257 47.5845 8.22561 47.5845C8.22552 47.5845 8.22543 47.5845 8.22534 47.5845C8.22525 47.5845 8.22516 47.5845 8.22507 47.5845C8.22498 47.5845 8.2249 47.5845 8.22481 47.5845C8.22472 47.5845 8.22463 47.5845 8.22454 47.5845C8.22445 47.5845 8.22436 47.5845 8.22427 47.5845C8.22418 47.5845 8.22409 47.5845 8.224 47.5845C8.22391 47.5845 8.22382 47.5845 8.22373 47.5845C8.22364 47.5845 8.22355 47.5845 8.22346 47.5845C8.22337 47.5845 8.22329 47.5845 8.2232 47.5845C8.22311 47.5845 8.22302 47.5845 8.22293 47.5845C8.22284 47.5845 8.22275 47.5845 8.22266 47.5845C8.22257 47.5845 8.22248 47.5845 8.22239 47.5845C8.2223 47.5845 8.22221 47.5845 8.22212 47.5845C8.22203 47.5845 8.22194 47.5845 8.22185 47.5845C8.22176 47.5845 8.22167 47.5845 8.22158 47.5845C8.2215 47.5845 8.22141 47.5845 8.22132 47.5845C8.22123 47.5845 8.22114 47.5845 8.22105 47.5845C8.22096 47.5845 8.22087 47.5845 8.22078 47.5845C8.22069 47.5845 8.2206 47.5845 8.22051 47.5845C8.22042 47.5845 8.22033 47.5845 8.22024 47.5845C8.22015 47.5845 8.22006 47.5845 8.21997 47.5845C8.21988 47.5845 8.21979 47.5845 8.2197 47.5845C8.21961 47.5845 8.21952 47.5845 8.21943 47.5845C8.21935 47.5845 8.21926 47.5845 8.21917 47.5845C8.21908 47.5845 8.21899 47.5845 8.2189 47.5845C8.21881 47.5845 8.21872 47.5845 8.21863 47.5845C8.21854 47.5845 8.21845 47.5845 8.21836 47.5845C8.21827 47.5845 8.21818 47.5845 8.21809 47.5845C8.218 47.5845 8.21791 47.5845 8.21782 47.5845C8.21773 47.5845 8.21764 47.5845 8.21755 47.5845C8.21746 47.5845 8.21737 47.5845 8.21728 47.5845C8.21719 47.5845 8.2171 47.5845 8.21701 47.5845C8.21692 47.5845 8.21683 47.5845 8.21674 47.5845C8.21665 47.5845 8.21657 47.5845 8.21648 47.5845C8.21639 47.5845 8.2163 47.5845 8.21621 47.5845C8.21612 47.5845 8.21603 47.5845 8.21594 47.5845C8.21585 47.5845 8.21576 47.5845 8.21567 47.5845C8.21558 47.5845 8.21549 47.5845 8.2154 47.5845C8.21531 47.5845 8.21522 47.5845 8.21513 47.5845C8.21504 47.5845 8.21495 47.5845 8.21486 47.5845C8.21477 47.5845 8.21468 47.5845 8.21459 47.5845C8.2145 47.5845 8.21441 47.5845 8.21432 47.5845C8.21423 47.5845 8.21414 47.5845 8.21405 47.5845C8.21396 47.5845 8.21387 47.5845 8.21378 47.5845C8.21369 47.5845 8.2136 47.5845 8.21351 47.5845C8.21342 47.5845 8.21333 47.5845 8.21324 47.5845C8.21315 47.5845 8.21306 47.5845 8.21297 47.5845C8.21288 47.5845 8.21279 47.5845 8.2127 47.5845C8.21261 47.5845 8.21252 47.5845 8.21243 47.5845C8.21234 47.5845 8.21225 47.5845 8.21216 47.5845C8.21207 47.5845 8.21198 47.5845 8.21189 47.5845C8.2118 47.5845 8.21171 47.5845 8.21162 47.5845C8.21153 47.5845 8.21144 47.5845 8.21135 47.5845C8.21126 47.5845 8.21117 47.5845 8.21108 47.5845C8.21099 47.5845 8.2109 47.5845 8.21081 47.5845C8.21072 47.5845 8.21063 47.5845 8.21054 47.5845C8.21045 47.5845 8.21036 47.5845 8.21027 47.5845C8.21018 47.5845 8.21009 47.5845 8.21 47.5845C8.20991 47.5845 8.20982 47.5845 8.20973 47.5845C8.20964 47.5845 8.20955 47.5845 8.20946 47.5845C8.20937 47.5845 8.20928 47.5845 8.20919 47.5845C8.2091 47.5845 8.20901 47.5845 8.20892 47.5845C8.20883 47.5845 8.20874 47.5845 8.20865 47.5845C8.20856 47.5845 8.20847 47.5845 8.20838 47.5845C8.20829 47.5845 8.2082 47.5845 8.20811 47.5845C8.20802 47.5845 8.20793 47.5845 8.20784 47.5845C8.20775 47.5845 8.20766 47.5845 8.20757 47.5845C8.20748 47.5845 8.20739 47.5845 8.2073 47.5845C8.20721 47.5845 8.20712 47.5845 8.20703 47.5845C8.20694 47.5845 8.20685 47.5845 8.20676 47.5845C8.20667 47.5845 8.20658 47.5845 8.20649 47.5845C8.2064 47.5845 8.20631 47.5845 8.20622 47.5845C8.20613 47.5845 8.20604 47.5845 8.20595 47.5845C8.20586 47.5845 8.20577 47.5845 8.20568 47.5845C8.20559 47.5845 8.2055 47.5845 8.20541 47.5845C8.20532 47.5845 8.20523 47.5845 8.20514 47.5845C8.20505 47.5845 8.20496 47.5845 8.20487 47.5845C8.20478 47.5845 8.20469 47.5845 8.2046 47.5845C8.20451 47.5845 8.20442 47.5845 8.20433 47.5845C8.20424 47.5845 8.20415 47.5845 8.20406 47.5845C8.20397 47.5845 8.20388 47.5845 8.20379 47.5845C8.2037 47.5845 8.20361 47.5845 8.20351 47.5845C8.20342 47.5845 8.20333 47.5845 8.20324 47.5845C8.20315 47.5845 8.20306 47.5845 8.20297 47.5845C8.20288 47.5845 8.20279 47.5845 8.2027 47.5845C8.20261 47.5845 8.20252 47.5845 8.20243 47.5845C8.20234 47.5845 8.20225 47.5845 8.20216 47.5845C8.20207 47.5845 8.20198 47.5845 8.20189 47.5845C8.2018 47.5845 8.20171 47.5845 8.20162 47.5845C8.20153 47.5845 8.20144 47.5845 8.20135 47.5845C8.20126 47.5845 8.20117 47.5845 8.20108 47.5845C8.20099 47.5845 8.2009 47.5845 8.20081 47.5845C8.20071 47.5845 8.20062 47.5845 8.20053 47.5845C8.20044 47.5845 8.20035 47.5845 8.20026 47.5845C8.20017 47.5845 8.20008 47.5845 8.19999 47.5845C8.1999 47.5845 8.19981 47.5845 8.19972 47.5845C8.19963 47.5845 8.19954 47.5845 8.19945 47.5845C8.19936 47.5845 8.19927 47.5845 8.19918 47.5845C8.19909 47.5845 8.199 47.5845 8.19891 47.5845C8.19882 47.5845 8.19873 47.5845 8.19864 47.5845C8.19854 47.5845 8.19845 47.5845 8.19836 47.5845C8.19827 47.5845 8.19818 47.5845 8.19809 47.5845C8.198 47.5845 8.19791 47.5845 8.19782 47.5845C8.19773 47.5845 8.19764 47.5845 8.19755 47.5845C8.19746 47.5845 8.19737 47.5845 8.19728 47.5845V67.5845C8.19737 67.5845 8.19746 67.5845 8.19755 67.5845C8.19764 67.5845 8.19773 67.5845 8.19782 67.5845C8.19791 67.5845 8.198 67.5845 8.19809 67.5845C8.19818 67.5845 8.19827 67.5845 8.19836 67.5845C8.19845 67.5845 8.19854 67.5845 8.19864 67.5845C8.19873 67.5845 8.19882 67.5845 8.19891 67.5845C8.199 67.5845 8.19909 67.5845 8.19918 67.5845C8.19927 67.5845 8.19936 67.5845 8.19945 67.5845C8.19954 67.5845 8.19963 67.5845 8.19972 67.5845C8.19981 67.5845 8.1999 67.5845 8.19999 67.5845C8.20008 67.5845 8.20017 67.5845 8.20026 67.5845C8.20035 67.5845 8.20044 67.5845 8.20053 67.5845C8.20062 67.5845 8.20071 67.5845 8.20081 67.5845C8.2009 67.5845 8.20099 67.5845 8.20108 67.5845C8.20117 67.5845 8.20126 67.5845 8.20135 67.5845C8.20144 67.5845 8.20153 67.5845 8.20162 67.5845C8.20171 67.5845 8.2018 67.5845 8.20189 67.5845C8.20198 67.5845 8.20207 67.5845 8.20216 67.5845C8.20225 67.5845 8.20234 67.5845 8.20243 67.5845C8.20252 67.5845 8.20261 67.5845 8.2027 67.5845C8.20279 67.5845 8.20288 67.5845 8.20297 67.5845C8.20306 67.5845 8.20315 67.5845 8.20324 67.5845C8.20333 67.5845 8.20342 67.5845 8.20351 67.5845C8.20361 67.5845 8.2037 67.5845 8.20379 67.5845C8.20388 67.5845 8.20397 67.5845 8.20406 67.5845C8.20415 67.5845 8.20424 67.5845 8.20433 67.5845C8.20442 67.5845 8.20451 67.5845 8.2046 67.5845C8.20469 67.5845 8.20478 67.5845 8.20487 67.5845C8.20496 67.5845 8.20505 67.5845 8.20514 67.5845C8.20523 67.5845 8.20532 67.5845 8.20541 67.5845C8.2055 67.5845 8.20559 67.5845 8.20568 67.5845C8.20577 67.5845 8.20586 67.5845 8.20595 67.5845C8.20604 67.5845 8.20613 67.5845 8.20622 67.5845C8.20631 67.5845 8.2064 67.5845 8.20649 67.5845C8.20658 67.5845 8.20667 67.5845 8.20676 67.5845C8.20685 67.5845 8.20694 67.5845 8.20703 67.5845C8.20712 67.5845 8.20721 67.5845 8.2073 67.5845C8.20739 67.5845 8.20748 67.5845 8.20757 67.5845C8.20766 67.5845 8.20775 67.5845 8.20784 67.5845C8.20793 67.5845 8.20802 67.5845 8.20811 67.5845C8.2082 67.5845 8.20829 67.5845 8.20838 67.5845C8.20847 67.5845 8.20856 67.5845 8.20865 67.5845C8.20874 67.5845 8.20883 67.5845 8.20892 67.5845C8.20901 67.5845 8.2091 67.5845 8.20919 67.5845C8.20928 67.5845 8.20937 67.5845 8.20946 67.5845C8.20955 67.5845 8.20964 67.5845 8.20973 67.5845C8.20982 67.5845 8.20991 67.5845 8.21 67.5845C8.21009 67.5845 8.21018 67.5845 8.21027 67.5845C8.21036 67.5845 8.21045 67.5845 8.21054 67.5845C8.21063 67.5845 8.21072 67.5845 8.21081 67.5845C8.2109 67.5845 8.21099 67.5845 8.21108 67.5845C8.21117 67.5845 8.21126 67.5845 8.21135 67.5845C8.21144 67.5845 8.21153 67.5845 8.21162 67.5845C8.21171 67.5845 8.2118 67.5845 8.21189 67.5845C8.21198 67.5845 8.21207 67.5845 8.21216 67.5845C8.21225 67.5845 8.21234 67.5845 8.21243 67.5845C8.21252 67.5845 8.21261 67.5845 8.2127 67.5845C8.21279 67.5845 8.21288 67.5845 8.21297 67.5845C8.21306 67.5845 8.21315 67.5845 8.21324 67.5845C8.21333 67.5845 8.21342 67.5845 8.21351 67.5845C8.2136 67.5845 8.21369 67.5845 8.21378 67.5845C8.21387 67.5845 8.21396 67.5845 8.21405 67.5845C8.21414 67.5845 8.21423 67.5845 8.21432 67.5845C8.21441 67.5845 8.2145 67.5845 8.21459 67.5845C8.21468 67.5845 8.21477 67.5845 8.21486 67.5845C8.21495 67.5845 8.21504 67.5845 8.21513 67.5845C8.21522 67.5845 8.21531 67.5845 8.2154 67.5845C8.21549 67.5845 8.21558 67.5845 8.21567 67.5845C8.21576 67.5845 8.21585 67.5845 8.21594 67.5845C8.21603 67.5845 8.21612 67.5845 8.21621 67.5845C8.2163 67.5845 8.21639 67.5845 8.21648 67.5845C8.21657 67.5845 8.21665 67.5845 8.21674 67.5845C8.21683 67.5845 8.21692 67.5845 8.21701 67.5845C8.2171 67.5845 8.21719 67.5845 8.21728 67.5845C8.21737 67.5845 8.21746 67.5845 8.21755 67.5845C8.21764 67.5845 8.21773 67.5845 8.21782 67.5845C8.21791 67.5845 8.218 67.5845 8.21809 67.5845C8.21818 67.5845 8.21827 67.5845 8.21836 67.5845C8.21845 67.5845 8.21854 67.5845 8.21863 67.5845C8.21872 67.5845 8.21881 67.5845 8.2189 67.5845C8.21899 67.5845 8.21908 67.5845 8.21917 67.5845C8.21926 67.5845 8.21935 67.5845 8.21943 67.5845C8.21952 67.5845 8.21961 67.5845 8.2197 67.5845C8.21979 67.5845 8.21988 67.5845 8.21997 67.5845C8.22006 67.5845 8.22015 67.5845 8.22024 67.5845C8.22033 67.5845 8.22042 67.5845 8.22051 67.5845C8.2206 67.5845 8.22069 67.5845 8.22078 67.5845C8.22087 67.5845 8.22096 67.5845 8.22105 67.5845C8.22114 67.5845 8.22123 67.5845 8.22132 67.5845C8.22141 67.5845 8.2215 67.5845 8.22158 67.5845C8.22167 67.5845 8.22176 67.5845 8.22185 67.5845C8.22194 67.5845 8.22203 67.5845 8.22212 67.5845C8.22221 67.5845 8.2223 67.5845 8.22239 67.5845C8.22248 67.5845 8.22257 67.5845 8.22266 67.5845C8.22275 67.5845 8.22284 67.5845 8.22293 67.5845C8.22302 67.5845 8.22311 67.5845 8.2232 67.5845C8.22329 67.5845 8.22337 67.5845 8.22346 67.5845C8.22355 67.5845 8.22364 67.5845 8.22373 67.5845C8.22382 67.5845 8.22391 67.5845 8.224 67.5845C8.22409 67.5845 8.22418 67.5845 8.22427 67.5845C8.22436 67.5845 8.22445 67.5845 8.22454 67.5845C8.22463 67.5845 8.22472 67.5845 8.22481 67.5845C8.2249 67.5845 8.22498 67.5845 8.22507 67.5845C8.22516 67.5845 8.22525 67.5845 8.22534 67.5845C8.22543 67.5845 8.22552 67.5845 8.22561 67.5845C8.2257 67.5845 8.22579 67.5845 8.22588 67.5845C8.22597 67.5845 8.22606 67.5845 8.22615 67.5845C8.22624 67.5845 8.22633 67.5845 8.22641 67.5845C8.2265 67.5845 8.22659 67.5845 8.22668 67.5845C8.22677 67.5845 8.22686 67.5845 8.22695 67.5845C8.22704 67.5845 8.22713 67.5845 8.22722 67.5845C8.22731 67.5845 8.2274 67.5845 8.22749 67.5845C8.22758 67.5845 8.22766 67.5845 8.22775 67.5845C8.22784 67.5845 8.22793 67.5845 8.22802 67.5845C8.22811 67.5845 8.2282 67.5845 8.22829 67.5845C8.22838 67.5845 8.22847 67.5845 8.22856 67.5845C8.22865 67.5845 8.22874 67.5845 8.22883 67.5845C8.22891 67.5845 8.229 67.5845 8.22909 67.5845C8.22918 67.5845 8.22927 67.5845 8.22936 67.5845C8.22945 67.5845 8.22954 67.5845 8.22963 67.5845C8.22972 67.5845 8.22981 67.5845 8.2299 67.5845C8.22999 67.5845 8.23007 67.5845 8.23016 67.5845C8.23025 67.5845 8.23034 67.5845 8.23043 67.5845C8.23052 67.5845 8.23061 67.5845 8.2307 67.5845C8.23079 67.5845 8.23088 67.5845 8.23097 67.5845C8.23106 67.5845 8.23114 67.5845 8.23123 67.5845C8.23132 67.5845 8.23141 67.5845 8.2315 67.5845C8.23159 67.5845 8.23168 67.5845 8.23177 67.5845C8.23186 67.5845 8.23195 67.5845 8.23204 67.5845C8.23212 67.5845 8.23221 67.5845 8.2323 67.5845C8.23239 67.5845 8.23248 67.5845 8.23257 67.5845C8.23266 67.5845 8.23275 67.5845 8.23284 67.5845C8.23293 67.5845 8.23302 67.5845 8.2331 67.5845C8.23319 67.5845 8.23328 67.5845 8.23337 67.5845C8.23346 67.5845 8.23355 67.5845 8.23364 67.5845C8.23373 67.5845 8.23382 67.5845 8.23391 67.5845C8.234 67.5845 8.23408 67.5845 8.23417 67.5845C8.23426 67.5845 8.23435 67.5845 8.23444 67.5845C8.23453 67.5845 8.23462 67.5845 8.23471 67.5845C8.2348 67.5845 8.23489 67.5845 8.23497 67.5845C8.23506 67.5845 8.23515 67.5845 8.23524 67.5845C8.23533 67.5845 8.23542 67.5845 8.23551 67.5845C8.2356 67.5845 8.23569 67.5845 8.23577 67.5845C8.23586 67.5845 8.23595 67.5845 8.23604 67.5845C8.23613 67.5845 8.23622 67.5845 8.23631 67.5845C8.2364 67.5845 8.23649 67.5845 8.23658 67.5845C8.23666 67.5845 8.23675 67.5845 8.23684 67.5845C8.23693 67.5845 8.23702 67.5845 8.23711 67.5845C8.2372 67.5845 8.23729 67.5845 8.23738 67.5845C8.23746 67.5845 8.23755 67.5845 8.23764 67.5845C8.23773 67.5845 8.23782 67.5845 8.23791 67.5845C8.238 67.5845 8.23809 67.5845 8.23818 67.5845C8.23826 67.5845 8.23835 67.5845 8.23844 67.5845C8.23853 67.5845 8.23862 67.5845 8.23871 67.5845C8.2388 67.5845 8.23889 67.5845 8.23898 67.5845C8.23906 67.5845 8.23915 67.5845 8.23924 67.5845C8.23933 67.5845 8.23942 67.5845 8.23951 67.5845C8.2396 67.5845 8.23969 67.5845 8.23977 67.5845C8.23986 67.5845 8.23995 67.5845 8.24004 67.5845C8.24013 67.5845 8.24022 67.5845 8.24031 67.5845C8.2404 67.5845 8.24048 67.5845 8.24057 67.5845C8.24066 67.5845 8.24075 67.5845 8.24084 67.5845C8.24093 67.5845 8.24102 67.5845 8.24111 67.5845C8.24119 67.5845 8.24128 67.5845 8.24137 67.5845C8.24146 67.5845 8.24155 67.5845 8.24164 67.5845C8.24173 67.5845 8.24182 67.5845 8.2419 67.5845C8.24199 67.5845 8.24208 67.5845 8.24217 67.5845C8.24226 67.5845 8.24235 67.5845 8.24244 67.5845C8.24253 67.5845 8.24261 67.5845 8.2427 67.5845C8.24279 67.5845 8.24288 67.5845 8.24297 67.5845C8.24306 67.5845 8.24315 67.5845 8.24323 67.5845C8.24332 67.5845 8.24341 67.5845 8.2435 67.5845C8.24359 67.5845 8.24368 67.5845 8.24377 67.5845C8.24386 67.5845 8.24394 67.5845 8.24403 67.5845C8.24412 67.5845 8.24421 67.5845 8.2443 67.5845C8.24439 67.5845 8.24448 67.5845 8.24456 67.5845C8.24465 67.5845 8.24474 67.5845 8.24483 67.5845C8.24492 67.5845 8.24501 67.5845 8.2451 67.5845C8.24518 67.5845 8.24527 67.5845 8.24536 67.5845C8.24545 67.5845 8.24554 67.5845 8.24563 67.5845C8.24572 67.5845 8.2458 67.5845 8.24589 67.5845C8.24598 67.5845 8.24607 67.5845 8.24616 67.5845C8.24625 67.5845 8.24634 67.5845 8.24642 67.5845C8.24651 67.5845 8.2466 67.5845 8.24669 67.5845C8.24678 67.5845 8.24687 67.5845 8.24696 67.5845C8.24704 67.5845 8.24713 67.5845 8.24722 67.5845C8.24731 67.5845 8.2474 67.5845 8.24749 67.5845C8.24757 67.5845 8.24766 67.5845 8.24775 67.5845C8.24784 67.5845 8.24793 67.5845 8.24802 67.5845C8.24811 67.5845 8.24819 67.5845 8.24828 67.5845C8.24837 67.5845 8.24846 67.5845 8.24855 67.5845C8.24864 67.5845 8.24872 67.5845 8.24881 67.5845C8.2489 67.5845 8.24899 67.5845 8.24908 67.5845C8.24917 67.5845 8.24925 67.5845 8.24934 67.5845C8.24943 67.5845 8.24952 67.5845 8.24961 67.5845C8.2497 67.5845 8.24979 67.5845 8.24987 67.5845C8.24996 67.5845 8.25005 67.5845 8.25014 67.5845C8.25023 67.5845 8.25032 67.5845 8.2504 67.5845C8.25049 67.5845 8.25058 67.5845 8.25067 67.5845C8.25076 67.5845 8.25085 67.5845 8.25093 67.5845C8.25102 67.5845 8.25111 67.5845 8.2512 67.5845C8.25129 67.5845 8.25138 67.5845 8.25146 67.5845C8.25155 67.5845 8.25164 67.5845 8.25173 67.5845C8.25182 67.5845 8.25191 67.5845 8.25199 67.5845C8.25208 67.5845 8.25217 67.5845 8.25226 67.5845C8.25235 67.5845 8.25244 67.5845 8.25252 67.5845C8.25261 67.5845 8.2527 67.5845 8.25279 67.5845C8.25288 67.5845 8.25296 67.5845 8.25305 67.5845C8.25314 67.5845 8.25323 67.5845 8.25332 67.5845C8.25341 67.5845 8.25349 67.5845 8.25358 67.5845C8.25367 67.5845 8.25376 67.5845 8.25385 67.5845C8.25394 67.5845 8.25402 67.5845 8.25411 67.5845C8.2542 67.5845 8.25429 67.5845 8.25438 67.5845C8.25446 67.5845 8.25455 67.5845 8.25464 67.5845C8.25473 67.5845 8.25482 67.5845 8.25491 67.5845C8.25499 67.5845 8.25508 67.5845 8.25517 67.5845C8.25526 67.5845 8.25535 67.5845 8.25543 67.5845C8.25552 67.5845 8.25561 67.5845 8.2557 67.5845C8.25579 67.5845 8.25588 67.5845 8.25596 67.5845C8.25605 67.5845 8.25614 67.5845 8.25623 67.5845C8.25632 67.5845 8.2564 67.5845 8.25649 67.5845C8.25658 67.5845 8.25667 67.5845 8.25676 67.5845C8.25684 67.5845 8.25693 67.5845 8.25702 67.5845C8.25711 67.5845 8.2572 67.5845 8.25728 67.5845C8.25737 67.5845 8.25746 67.5845 8.25755 67.5845C8.25764 67.5845 8.25773 67.5845 8.25781 67.5845C8.2579 67.5845 8.25799 67.5845 8.25808 67.5845C8.25817 67.5845 8.25825 67.5845 8.25834 67.5845C8.25843 67.5845 8.25852 67.5845 8.25861 67.5845C8.25869 67.5845 8.25878 67.5845 8.25887 67.5845C8.25896 67.5845 8.25905 67.5845 8.25913 67.5845C8.25922 67.5845 8.25931 67.5845 8.2594 67.5845C8.25949 67.5845 8.25957 67.5845 8.25966 67.5845C8.25975 67.5845 8.25984 67.5845 8.25993 67.5845C8.26001 67.5845 8.2601 67.5845 8.26019 67.5845C8.26028 67.5845 8.26037 67.5845 8.26045 67.5845C8.26054 67.5845 8.26063 67.5845 8.26072 67.5845C8.26081 67.5845 8.26089 67.5845 8.26098 67.5845C8.26107 67.5845 8.26116 67.5845 8.26124 67.5845C8.26133 67.5845 8.26142 67.5845 8.26151 67.5845C8.2616 67.5845 8.26168 67.5845 8.26177 67.5845C8.26186 67.5845 8.26195 67.5845 8.26204 67.5845C8.26212 67.5845 8.26221 67.5845 8.2623 67.5845C8.26239 67.5845 8.26248 67.5845 8.26256 67.5845C8.26265 67.5845 8.26274 67.5845 8.26283 67.5845C8.26291 67.5845 8.263 67.5845 8.26309 67.5845C8.26318 67.5845 8.26327 67.5845 8.26335 67.5845C8.26344 67.5845 8.26353 67.5845 8.26362 67.5845C8.2637 67.5845 8.26379 67.5845 8.26388 67.5845C8.26397 67.5845 8.26406 67.5845 8.26414 67.5845C8.26423 67.5845 8.26432 67.5845 8.26441 67.5845C8.2645 67.5845 8.26458 67.5845 8.26467 67.5845C8.26476 67.5845 8.26485 67.5845 8.26493 67.5845C8.26502 67.5845 8.26511 67.5845 8.2652 67.5845C8.26528 67.5845 8.26537 67.5845 8.26546 67.5845C8.26555 67.5845 8.26564 67.5845 8.26572 67.5845C8.26581 67.5845 8.2659 67.5845 8.26599 67.5845C8.26607 67.5845 8.26616 67.5845 8.26625 67.5845C8.26634 67.5845 8.26643 67.5845 8.26651 67.5845C8.2666 67.5845 8.26669 67.5845 8.26678 67.5845C8.26686 67.5845 8.26695 67.5845 8.26704 67.5845C8.26713 67.5845 8.26721 67.5845 8.2673 67.5845C8.26739 67.5845 8.26748 67.5845 8.26757 67.5845C8.26765 67.5845 8.26774 67.5845 8.26783 67.5845C8.26792 67.5845 8.268 67.5845 8.26809 67.5845C8.26818 67.5845 8.26827 67.5845 8.26835 67.5845C8.26844 67.5845 8.26853 67.5845 8.26862 67.5845C8.2687 67.5845 8.26879 67.5845 8.26888 67.5845C8.26897 67.5845 8.26905 67.5845 8.26914 67.5845C8.26923 67.5845 8.26932 67.5845 8.26941 67.5845C8.26949 67.5845 8.26958 67.5845 8.26967 67.5845C8.26976 67.5845 8.26984 67.5845 8.26993 67.5845C8.27002 67.5845 8.27011 67.5845 8.27019 67.5845C8.27028 67.5845 8.27037 67.5845 8.27046 67.5845C8.27054 67.5845 8.27063 67.5845 8.27072 67.5845C8.27081 67.5845 8.27089 67.5845 8.27098 67.5845C8.27107 67.5845 8.27116 67.5845 8.27124 67.5845C8.27133 67.5845 8.27142 67.5845 8.27151 67.5845C8.27159 67.5845 8.27168 67.5845 8.27177 67.5845C8.27186 67.5845 8.27194 67.5845 8.27203 67.5845C8.27212 67.5845 8.27221 67.5845 8.27229 67.5845C8.27238 67.5845 8.27247 67.5845 8.27256 67.5845C8.27264 67.5845 8.27273 67.5845 8.27282 67.5845C8.27291 67.5845 8.27299 67.5845 8.27308 67.5845C8.27317 67.5845 8.27325 67.5845 8.27334 67.5845C8.27343 67.5845 8.27352 67.5845 8.2736 67.5845C8.27369 67.5845 8.27378 67.5845 8.27387 67.5845C8.27395 67.5845 8.27404 67.5845 8.27413 67.5845C8.27422 67.5845 8.2743 67.5845 8.27439 67.5845C8.27448 67.5845 8.27457 67.5845 8.27465 67.5845C8.27474 67.5845 8.27483 67.5845 8.27492 67.5845C8.275 67.5845 8.27509 67.5845 8.27518 67.5845C8.27526 67.5845 8.27535 67.5845 8.27544 67.5845C8.27553 67.5845 8.27561 67.5845 8.2757 67.5845C8.27579 67.5845 8.27588 67.5845 8.27596 67.5845C8.27605 67.5845 8.27614 67.5845 8.27623 67.5845C8.27631 67.5845 8.2764 67.5845 8.27649 67.5845C8.27657 67.5845 8.27666 67.5845 8.27675 67.5845C8.27684 67.5845 8.27692 67.5845 8.27701 67.5845C8.2771 67.5845 8.27719 67.5845 8.27727 67.5845C8.27736 67.5845 8.27745 67.5845 8.27753 67.5845C8.27762 67.5845 8.27771 67.5845 8.2778 67.5845C8.27788 67.5845 8.27797 67.5845 8.27806 67.5845C8.27814 67.5845 8.27823 67.5845 8.27832 67.5845C8.27841 67.5845 8.27849 67.5845 8.27858 67.5845C8.27867 67.5845 8.27876 67.5845 8.27884 67.5845C8.27893 67.5845 8.27902 67.5845 8.2791 67.5845C8.27919 67.5845 8.27928 67.5845 8.27937 67.5845C8.27945 67.5845 8.27954 67.5845 8.27963 67.5845C8.27971 67.5845 8.2798 67.5845 8.27989 67.5845C8.27998 67.5845 8.28006 67.5845 8.28015 67.5845C8.28024 67.5845 8.28032 67.5845 8.28041 67.5845C8.2805 67.5845 8.28059 67.5845 8.28067 67.5845C8.28076 67.5845 8.28085 67.5845 8.28093 67.5845C8.28102 67.5845 8.28111 67.5845 8.28119 67.5845C8.28128 67.5845 8.28137 67.5845 8.28146 67.5845C8.28154 67.5845 8.28163 67.5845 8.28172 67.5845C8.2818 67.5845 8.28189 67.5845 8.28198 67.5845C8.28207 67.5845 8.28215 67.5845 8.28224 67.5845C8.28233 67.5845 8.28241 67.5845 8.2825 67.5845C8.28259 67.5845 8.28267 67.5845 8.28276 67.5845C8.28285 67.5845 8.28294 67.5845 8.28302 67.5845C8.28311 67.5845 8.2832 67.5845 8.28328 67.5845C8.28337 67.5845 8.28346 67.5845 8.28354 67.5845C8.28363 67.5845 8.28372 67.5845 8.28381 67.5845C8.28389 67.5845 8.28398 67.5845 8.28407 67.5845C8.28415 67.5845 8.28424 67.5845 8.28433 67.5845C8.28441 67.5845 8.2845 67.5845 8.28459 67.5845C8.28468 67.5845 8.28476 67.5845 8.28485 67.5845C8.28494 67.5845 8.28502 67.5845 8.28511 67.5845C8.2852 67.5845 8.28528 67.5845 8.28537 67.5845C8.28546 67.5845 8.28554 67.5845 8.28563 67.5845C8.28572 67.5845 8.28581 67.5845 8.28589 67.5845C8.28598 67.5845 8.28607 67.5845 8.28615 67.5845C8.28624 67.5845 8.28633 67.5845 8.28641 67.5845C8.2865 67.5845 8.28659 67.5845 8.28667 67.5845C8.28676 67.5845 8.28685 67.5845 8.28693 67.5845C8.28702 67.5845 8.28711 67.5845 8.2872 67.5845C8.28728 67.5845 8.28737 67.5845 8.28746 67.5845C8.28754 67.5845 8.28763 67.5845 8.28772 67.5845C8.2878 67.5845 8.28789 67.5845 8.28798 67.5845C8.28806 67.5845 8.28815 67.5845 8.28824 67.5845C8.28832 67.5845 8.28841 67.5845 8.2885 67.5845C8.28858 67.5845 8.28867 67.5845 8.28876 67.5845C8.28884 67.5845 8.28893 67.5845 8.28902 67.5845C8.2891 67.5845 8.28919 67.5845 8.28928 67.5845C8.28937 67.5845 8.28945 67.5845 8.28954 67.5845C8.28963 67.5845 8.28971 67.5845 8.2898 67.5845C8.28989 67.5845 8.28997 67.5845 8.29006 67.5845C8.29015 67.5845 8.29023 67.5845 8.29032 67.5845C8.29041 67.5845 8.29049 67.5845 8.29058 67.5845C8.29067 67.5845 8.29075 67.5845 8.29084 67.5845C8.29093 67.5845 8.29101 67.5845 8.2911 67.5845C8.29119 67.5845 8.29127 67.5845 8.29136 67.5845C8.29145 67.5845 8.29153 67.5845 8.29162 67.5845C8.29171 67.5845 8.29179 67.5845 8.29188 67.5845C8.29197 67.5845 8.29205 67.5845 8.29214 67.5845C8.29223 67.5845 8.29231 67.5845 8.2924 67.5845C8.29249 67.5845 8.29257 67.5845 8.29266 67.5845C8.29275 67.5845 8.29283 67.5845 8.29292 67.5845C8.29301 67.5845 8.29309 67.5845 8.29318 67.5845C8.29327 67.5845 8.29335 67.5845 8.29344 67.5845C8.29352 67.5845 8.29361 67.5845 8.2937 67.5845C8.29378 67.5845 8.29387 67.5845 8.29396 67.5845C8.29404 67.5845 8.29413 67.5845 8.29422 67.5845C8.2943 67.5845 8.29439 67.5845 8.29448 67.5845C8.29456 67.5845 8.29465 67.5845 8.29474 67.5845C8.29482 67.5845 8.29491 67.5845 8.295 67.5845C8.29508 67.5845 8.29517 67.5845 8.29526 67.5845C8.29534 67.5845 8.29543 67.5845 8.29551 67.5845C8.2956 67.5845 8.29569 67.5845 8.29577 67.5845C8.29586 67.5845 8.29595 67.5845 8.29603 67.5845C8.29612 67.5845 8.29621 67.5845 8.29629 67.5845C8.29638 67.5845 8.29647 67.5845 8.29655 67.5845C8.29664 67.5845 8.29673 67.5845 8.29681 67.5845C8.2969 67.5845 8.29698 67.5845 8.29707 67.5845C8.29716 67.5845 8.29724 67.5845 8.29733 67.5845C8.29742 67.5845 8.2975 67.5845 8.29759 67.5845C8.29768 67.5845 8.29776 67.5845 8.29785 67.5845C8.29794 67.5845 8.29802 67.5845 8.29811 67.5845C8.29819 67.5845 8.29828 67.5845 8.29837 67.5845C8.29845 67.5845 8.29854 67.5845 8.29863 67.5845C8.29871 67.5845 8.2988 67.5845 8.29889 67.5845C8.29897 67.5845 8.29906 67.5845 8.29914 67.5845C8.29923 67.5845 8.29932 67.5845 8.2994 67.5845C8.29949 67.5845 8.29958 67.5845 8.29966 67.5845C8.29975 67.5845 8.29983 67.5845 8.29992 67.5845C8.30001 67.5845 8.30009 67.5845 8.30018 67.5845C8.30027 67.5845 8.30035 67.5845 8.30044 67.5845C8.30053 67.5845 8.30061 67.5845 8.3007 67.5845C8.30078 67.5845 8.30087 67.5845 8.30096 67.5845C8.30104 67.5845 8.30113 67.5845 8.30122 67.5845C8.3013 67.5845 8.30139 67.5845 8.30147 67.5845C8.30156 67.5845 8.30165 67.5845 8.30173 67.5845C8.30182 67.5845 8.30191 67.5845 8.30199 67.5845C8.30208 67.5845 8.30216 67.5845 8.30225 67.5845C8.30234 67.5845 8.30242 67.5845 8.30251 67.5845C8.30259 67.5845 8.30268 67.5845 8.30277 67.5845C8.30285 67.5845 8.30294 67.5845 8.30303 67.5845C8.30311 67.5845 8.3032 67.5845 8.30328 67.5845C8.30337 67.5845 8.30346 67.5845 8.30354 67.5845C8.30363 67.5845 8.30372 67.5845 8.3038 67.5845C8.30389 67.5845 8.30397 67.5845 8.30406 67.5845C8.30415 67.5845 8.30423 67.5845 8.30432 67.5845C8.3044 67.5845 8.30449 67.5845 8.30458 67.5845C8.30466 67.5845 8.30475 67.5845 8.30483 67.5845C8.30492 67.5845 8.30501 67.5845 8.30509 67.5845C8.30518 67.5845 8.30527 67.5845 8.30535 67.5845C8.30544 67.5845 8.30552 67.5845 8.30561 67.5845C8.3057 67.5845 8.30578 67.5845 8.30587 67.5845C8.30595 67.5845 8.30604 67.5845 8.30613 67.5845C8.30621 67.5845 8.3063 67.5845 8.30638 67.5845C8.30647 67.5845 8.30656 67.5845 8.30664 67.5845C8.30673 67.5845 8.30681 67.5845 8.3069 67.5845C8.30699 67.5845 8.30707 67.5845 8.30716 67.5845C8.30724 67.5845 8.30733 67.5845 8.30742 67.5845C8.3075 67.5845 8.30759 67.5845 8.30767 67.5845C8.30776 67.5845 8.30785 67.5845 8.30793 67.5845C8.30802 67.5845 8.3081 67.5845 8.30819 67.5845C8.30828 67.5845 8.30836 67.5845 8.30845 67.5845C8.30853 67.5845 8.30862 67.5845 8.30871 67.5845C8.30879 67.5845 8.30888 67.5845 8.30896 67.5845C8.30905 67.5845 8.30914 67.5845 8.30922 67.5845C8.30931 67.5845 8.30939 67.5845 8.30948 67.5845C8.30956 67.5845 8.30965 67.5845 8.30974 67.5845C8.30982 67.5845 8.30991 67.5845 8.30999 67.5845C8.31008 67.5845 8.31017 67.5845 8.31025 67.5845C8.31034 67.5845 8.31042 67.5845 8.31051 67.5845C8.3106 67.5845 8.31068 67.5845 8.31077 67.5845C8.31085 67.5845 8.31094 67.5845 8.31102 67.5845C8.31111 67.5845 8.3112 67.5845 8.31128 67.5845C8.31137 67.5845 8.31145 67.5845 8.31154 67.5845C8.31163 67.5845 8.31171 67.5845 8.3118 67.5845C8.31188 67.5845 8.31197 67.5845 8.31205 67.5845C8.31214 67.5845 8.31223 67.5845 8.31231 67.5845C8.3124 67.5845 8.31248 67.5845 8.31257 67.5845C8.31265 67.5845 8.31274 67.5845 8.31283 67.5845C8.31291 67.5845 8.313 67.5845 8.31308 67.5845C8.31317 67.5845 8.31325 67.5845 8.31334 67.5845C8.31343 67.5845 8.31351 67.5845 8.3136 67.5845C8.31368 67.5845 8.31377 67.5845 8.31385 67.5845C8.31394 67.5845 8.31403 67.5845 8.31411 67.5845C8.3142 67.5845 8.31428 67.5845 8.31437 67.5845C8.31445 67.5845 8.31454 67.5845 8.31463 67.5845C8.31471 67.5845 8.3148 67.5845 8.31488 67.5845C8.31497 67.5845 8.31505 67.5845 8.31514 67.5845C8.31523 67.5845 8.31531 67.5845 8.3154 67.5845C8.31548 67.5845 8.31557 67.5845 8.31565 67.5845C8.31574 67.5845 8.31583 67.5845 8.31591 67.5845C8.316 67.5845 8.31608 67.5845 8.31617 67.5845C8.31625 67.5845 8.31634 67.5845 8.31642 67.5845C8.31651 67.5845 8.3166 67.5845 8.31668 67.5845C8.31677 67.5845 8.31685 67.5845 8.31694 67.5845C8.31702 67.5845 8.31711 67.5845 8.3172 67.5845C8.31728 67.5845 8.31737 67.5845 8.31745 67.5845C8.31754 67.5845 8.31762 67.5845 8.31771 67.5845C8.31779 67.5845 8.31788 67.5845 8.31797 67.5845C8.31805 67.5845 8.31814 67.5845 8.31822 67.5845C8.31831 67.5845 8.31839 67.5845 8.31848 67.5845C8.31856 67.5845 8.31865 67.5845 8.31873 67.5845C8.31882 67.5845 8.31891 67.5845 8.31899 67.5845C8.31908 67.5845 8.31916 67.5845 8.31925 67.5845C8.31933 67.5845 8.31942 67.5845 8.3195 67.5845C8.31959 67.5845 8.31968 67.5845 8.31976 67.5845C8.31985 67.5845 8.31993 67.5845 8.32002 67.5845C8.3201 67.5845 8.32019 67.5845 8.32027 67.5845C8.32036 67.5845 8.32044 67.5845 8.32053 67.5845C8.32062 67.5845 8.3207 67.5845 8.32079 67.5845C8.32087 67.5845 8.32096 67.5845 8.32104 67.5845C8.32113 67.5845 8.32121 67.5845 8.3213 67.5845C8.32138 67.5845 8.32147 67.5845 8.32155 67.5845C8.32164 67.5845 8.32173 67.5845 8.32181 67.5845C8.3219 67.5845 8.32198 67.5845 8.32207 67.5845C8.32215 67.5845 8.32224 67.5845 8.32232 67.5845C8.32241 67.5845 8.32249 67.5845 8.32258 67.5845C8.32266 67.5845 8.32275 67.5845 8.32284 67.5845C8.32292 67.5845 8.32301 67.5845 8.32309 67.5845C8.32318 67.5845 8.32326 67.5845 8.32335 67.5845C8.32343 67.5845 8.32352 67.5845 8.3236 67.5845C8.32369 67.5845 8.32377 67.5845 8.32386 67.5845C8.32394 67.5845 8.32403 67.5845 8.32411 67.5845C8.3242 67.5845 8.32429 67.5845 8.32437 67.5845C8.32446 67.5845 8.32454 67.5845 8.32463 67.5845C8.32471 67.5845 8.3248 67.5845 8.32488 67.5845C8.32497 67.5845 8.32505 67.5845 8.32514 67.5845C8.32522 67.5845 8.32531 67.5845 8.32539 67.5845C8.32548 67.5845 8.32556 67.5845 8.32565 67.5845C8.32573 67.5845 8.32582 67.5845 8.3259 67.5845C8.32599 67.5845 8.32608 67.5845 8.32616 67.5845C8.32625 67.5845 8.32633 67.5845 8.32642 67.5845C8.3265 67.5845 8.32659 67.5845 8.32667 67.5845C8.32676 67.5845 8.32684 67.5845 8.32693 67.5845C8.32701 67.5845 8.3271 67.5845 8.32718 67.5845C8.32727 67.5845 8.32735 67.5845 8.32744 67.5845C8.32752 67.5845 8.32761 67.5845 8.32769 67.5845C8.32778 67.5845 8.32786 67.5845 8.32795 67.5845C8.32803 67.5845 8.32812 67.5845 8.3282 67.5845C8.32829 67.5845 8.32837 67.5845 8.32846 67.5845C8.32854 67.5845 8.32863 67.5845 8.32871 67.5845C8.3288 67.5845 8.32888 67.5845 8.32897 67.5845C8.32906 67.5845 8.32914 67.5845 8.32923 67.5845C8.32931 67.5845 8.3294 67.5845 8.32948 67.5845C8.32957 67.5845 8.32965 67.5845 8.32974 67.5845C8.32982 67.5845 8.32991 67.5845 8.32999 67.5845C8.33008 67.5845 8.33016 67.5845 8.33025 67.5845C8.33033 67.5845 8.33042 67.5845 8.3305 67.5845C8.33059 67.5845 8.33067 67.5845 8.33076 67.5845C8.33084 67.5845 8.33093 67.5845 8.33101 67.5845C8.3311 67.5845 8.33118 67.5845 8.33127 67.5845C8.33135 67.5845 8.33144 67.5845 8.33152 67.5845C8.33161 67.5845 8.33169 67.5845 8.33178 67.5845C8.33186 67.5845 8.33195 67.5845 8.33203 67.5845V47.5845ZM8.19728 47.5845C3.57302 47.5845 -0.776853 49.8416 -3.44319 53.6459L12.9347 65.1247C11.8569 66.6626 10.0937 67.5845 8.19728 67.5845V47.5845ZM-3.48605 53.7075C-6.18652 57.6228 -6.78852 62.6982 -4.91947 67.199L13.5512 59.5285C14.3308 61.4059 14.0667 63.484 12.9776 65.0631L-3.48605 53.7075ZM-4.93548 67.1602C17.5382 121.925 70.0171 173.982 106.061 205.379L119.198 190.299C83.3441 159.068 34.1144 109.637 13.5672 59.5673L-4.93548 67.1602ZM105.95 190.397C60.9815 230.761 29.356 279.559 12.6944 308.87L30.0816 318.753C46.2254 290.353 76.6002 243.617 119.309 205.281L105.95 190.397ZM12.6962 308.866C7.93064 317.243 8.20384 327.524 13.3132 335.635L30.2357 324.975C29.0324 323.065 28.9848 320.681 30.0799 318.756L12.6962 308.866ZM13.3139 335.636C18.4287 343.754 27.5823 348.41 37.1551 347.787L35.8568 327.829C33.5828 327.977 31.4301 326.871 30.2351 324.974L13.3139 335.636ZM37.1606 347.787L153.967 340.124L152.658 320.167L35.8513 327.83L37.1606 347.787ZM153.943 340.125C158.194 339.857 162.105 337.804 164.74 334.526L149.151 321.997C150.013 320.923 151.289 320.253 152.682 320.165L153.943 340.125ZM164.684 334.595C167.398 331.278 168.546 326.997 167.912 322.817L148.138 325.816C147.931 324.446 148.309 323.025 149.207 321.927L164.684 334.595ZM167.916 322.839C163.685 294.513 169.3 275.852 175.428 264.495C178.53 258.746 181.852 254.706 184.339 252.142C185.584 250.86 186.617 249.949 187.305 249.382C187.649 249.099 187.906 248.901 188.059 248.787C188.136 248.73 188.187 248.693 188.211 248.676C188.217 248.672 188.222 248.668 188.225 248.666C188.228 248.664 188.229 248.663 188.229 248.663C188.229 248.663 188.229 248.663 188.228 248.664C188.228 248.664 188.227 248.665 188.226 248.665C188.224 248.667 188.223 248.668 188.224 248.667L176.929 232.162C174.211 234.022 138.305 259.988 148.135 325.794L167.916 322.839ZM178.337 249.471C184.685 252.443 194.942 254.582 204.888 255.822C215.088 257.093 226.494 257.602 235.659 256.637L233.563 236.747C226.448 237.497 216.684 237.137 207.361 235.975C197.784 234.782 190.163 232.924 186.816 231.357L178.337 249.471ZM235.659 256.637C250.504 255.073 271.981 250.32 289.302 238.066C307.296 225.337 320.34 204.729 317.174 173.786L297.278 175.822C299.641 198.917 290.424 212.773 277.752 221.738C264.407 231.179 246.812 235.351 233.563 236.747L235.659 256.637ZM317.153 173.596C315.019 156.066 320.165 138.457 331.318 124.74L315.8 112.123C301.257 130.009 294.503 153.034 297.299 176.012L317.153 173.596ZM326.141 128.092L353.58 120.757L348.415 101.435L320.976 108.771L326.141 128.092ZM353.603 120.751C357.478 119.705 362.213 116.606 363.636 110.927L344.235 106.068C344.671 104.326 345.601 103.204 346.287 102.597C346.996 101.97 347.732 101.62 348.392 101.441L353.603 120.751ZM363.649 110.873C365.409 103.676 360.638 98.1793 355.625 96.3846L348.884 115.215C347.763 114.813 346.281 113.912 345.198 112.172C344.058 110.342 343.729 108.136 344.221 106.122L363.649 110.873Z" fill="black" mask="url(#path-2-inside-1_1_3)"/>
</g>
<defs>
<filter id="filter0_d_1_3" x="0" y="0" width="358" height="357" filterUnits="userSpaceOnUse" color-interpolation-filters="sRGB">
<feFlood flood-opacity="0" result="BackgroundImageFix"/>
<feColorMatrix in="SourceAlpha" type="matrix" values="0 0 0 0 0 0 0 0 0 0 0 0 0 0 0 0 0 0 127 0" result="hardAlpha"/>
<feOffset dy="4"/>
<feGaussianBlur stdDeviation="2"/>
<feComposite in2="hardAlpha" operator="out"/>
<feColorMatrix type="matrix" values="0 0 0 0 0 0 0 0 0 0 0 0 0 0 0 0 0 0 0.25 0"/>
<feBlend mode="normal" in2="BackgroundImageFix" result="effect1_dropShadow_1_3"/>
<feBlend mode="normal" in="SourceGraphic" in2="effect1_dropShadow_1_3" result="shape"/>
</filter>
<clipPath id="clip0_1_3">
<rect width="350" height="349" fill="white" transform="translate(4)"/>
</clipPath>
</defs>
</svg>
