<svg width="23" height="26" viewBox="0 0 23 26" fill="none" xmlns="http://www.w3.org/2000/svg">
<path d="M20.24 14.2483L19.5329 13.5412L19.5318 13.5423L20.24 14.2483ZM15.995 4V3V4ZM11.75 5.75834L11.0429 5.05123L11.0429 5.05123L11.75 5.75834ZM5 12.5083L4.29289 11.8012C4.10536 11.9888 4 12.2431 4 12.5083H5ZM5 21.0083H4C4 21.5606 4.44772 22.0083 5 22.0083V21.0083ZM13.5 21.0083V22.0083C13.7657 22.0083 14.0205 21.9026 14.2082 21.7144L13.5 21.0083ZM16.7071 10.7154C17.0976 10.3249 17.0976 9.69175 16.7071 9.30122C16.3166 8.9107 15.6834 8.9107 15.2929 9.30122L16.7071 10.7154ZM1.29289 23.3012C0.902369 23.6917 0.902369 24.3249 1.29289 24.7154C1.68342 25.106 2.31658 25.106 2.70711 24.7154L1.29289 23.3012ZM17.5 18.0083C18.0523 18.0083 18.5 17.5606 18.5 17.0083C18.5 16.456 18.0523 16.0083 17.5 16.0083V18.0083ZM9 16.0083C8.44772 16.0083 8 16.456 8 17.0083C8 17.5606 8.44772 18.0083 9 18.0083V16.0083ZM5 1C5 0.447715 4.55228 0 4 0C3.44772 0 3 0.447715 3 1H5ZM3 7C3 7.55228 3.44772 8 4 8C4.55228 8 5 7.55228 5 7H3ZM1 3C0.447715 3 0 3.44772 0 4C0 4.55228 0.447715 5 1 5V3ZM7 5C7.55228 5 8 4.55228 8 4C8 3.44772 7.55228 3 7 3V5ZM20.9471 14.9554C22.2605 13.6421 22.9983 11.8607 22.9983 10.0033H20.9983C20.9983 11.3303 20.4712 12.6029 19.5329 13.5412L20.9471 14.9554ZM22.9983 10.0033C22.9983 8.14594 22.2605 6.36461 20.9471 5.05123L19.5329 6.46544C20.4712 7.40375 20.9983 8.67637 20.9983 10.0033H22.9983ZM20.9471 5.05123C19.6337 3.73785 17.8524 3 15.995 3V5C17.322 5 18.5946 5.52714 19.5329 6.46544L20.9471 5.05123ZM15.995 3C14.1376 3 12.3563 3.73785 11.0429 5.05123L12.4571 6.46544C13.3954 5.52714 14.668 5 15.995 5V3ZM11.0429 5.05123L4.29289 11.8012L5.70711 13.2154L12.4571 6.46544L11.0429 5.05123ZM4 12.5083V21.0083H6V12.5083H4ZM5 22.0083H13.5V20.0083H5V22.0083ZM14.2082 21.7144L20.9482 14.9544L19.5318 13.5423L12.7918 20.3023L14.2082 21.7144ZM15.2929 9.30122L1.29289 23.3012L2.70711 24.7154L16.7071 10.7154L15.2929 9.30122ZM17.5 16.0083H9V18.0083H17.5V16.0083ZM3 1V4H5V1H3ZM3 4V7H5V4H3ZM1 5H4V3H1V5ZM4 5H7V3H4V5Z" fill="white"/>
</svg>
